<svg width="20" height="21" viewBox="0 0 20 21" fill="none" xmlns="http://www.w3.org/2000/svg">
<path d="M5.68907 5.64575C5.38817 6.12795 4.8844 6.44498 4.32167 6.52495C4.00546 6.56989 3.69044 6.61852 3.37666 6.67081C2.49927 6.81701 1.875 7.58886 1.875 8.47835V15.5C1.875 16.5355 2.71447 17.375 3.75 17.375H16.25C17.2855 17.375 18.125 16.5355 18.125 15.5V8.47836C18.125 7.58886 17.5007 6.81702 16.6233 6.67081C16.3096 6.61853 15.9945 6.56989 15.6783 6.52496C15.1156 6.44499 14.6118 6.12795 14.3109 5.64575L13.6266 4.54908C13.3112 4.04364 12.7745 3.71532 12.1796 3.68337C11.458 3.64462 10.7313 3.625 10 3.625C9.26872 3.625 8.54203 3.64462 7.82042 3.68337C7.2255 3.71532 6.68881 4.04364 6.37341 4.54908L5.68907 5.64575Z" stroke="#0F172A" stroke-width="1.5" stroke-linecap="round" stroke-linejoin="round"/>
<path d="M13.75 11.125C13.75 13.1961 12.0711 14.875 10 14.875C7.92893 14.875 6.25 13.1961 6.25 11.125C6.25 9.05393 7.92893 7.375 10 7.375C12.0711 7.375 13.75 9.05393 13.75 11.125Z" stroke="#0F172A" stroke-width="1.5" stroke-linecap="round" stroke-linejoin="round"/>
<path d="M15.625 9.25H15.6313V9.25625H15.625V9.25Z" stroke="#0F172A" stroke-width="1.5" stroke-linecap="round" stroke-linejoin="round"/>
</svg>
