<svg width="18" height="15" viewBox="0 0 18 15" fill="none" xmlns="http://www.w3.org/2000/svg">
<path d="M16.8315 1.20414L16.1262 0.540353C15.9269 0.352753 15.5589 0.381624 15.3289 0.641339L12.8754 2.9359C11.7713 2.48858 10.5601 2.27211 9.28735 2.27211C5.4999 2.28648 2.21878 4.36457 0.639332 7.35205C0.547306 7.53965 0.547306 7.77049 0.639332 7.92922C1.37527 9.34352 2.47934 10.5125 3.85934 11.3928L1.85068 13.3121C1.62068 13.5286 1.59 13.8749 1.74338 14.0625L2.44866 14.7263C2.64799 14.9139 3.01597 14.885 3.24597 14.6253L16.7086 1.95468C16.9999 1.73833 17.0306 1.39201 16.8313 1.20439L16.8315 1.20414ZM10.1 5.56232C9.83933 5.50457 9.56338 5.43246 9.30269 5.43246C7.99931 5.43246 6.95675 6.41381 6.95675 7.6404C6.95675 7.88574 7.01811 8.14545 7.09473 8.39081L6.06728 9.34331C5.76066 8.83825 5.592 8.27534 5.592 7.64043C5.592 5.72108 7.2327 4.1769 9.27201 4.1769C9.94673 4.1769 10.5447 4.33563 11.0813 4.62422L10.1 5.56232Z" fill="#666666" fill-opacity="0.8"/>
<path d="M17.9358 7.352C17.3992 6.34176 16.6938 5.43265 15.8199 4.69662L12.9678 7.352V7.64059C12.9678 9.55994 11.3271 11.1041 9.28781 11.1041H8.98119L7.17188 12.807C7.8466 12.9369 8.55188 13.0235 9.24188 13.0235C13.0293 13.0235 16.3105 10.9454 17.8899 7.94352C18.0279 7.74142 18.0279 7.53946 17.9358 7.35185L17.9358 7.352Z" fill="#666666" fill-opacity="0.8"/>
</svg>
