<svg width="20" height="21" viewBox="0 0 20 21" fill="none" xmlns="http://www.w3.org/2000/svg">
<path fill-rule="evenodd" clip-rule="evenodd" d="M10 0.75C4.61522 0.75 0.25 5.11522 0.25 10.5C0.25 15.8848 4.61522 20.25 10 20.25C15.3848 20.25 19.75 15.8848 19.75 10.5C19.75 5.11522 15.3848 0.75 10 0.75ZM4.26197 4.5723C2.71293 6.07208 1.75 8.17359 1.75 10.5C1.75 15.0563 5.44365 18.75 10 18.75C14.5563 18.75 18.25 15.0563 18.25 10.5C18.25 7.74461 16.8992 5.30472 14.8237 3.8064C14.4863 4.34545 14.0374 4.80831 13.5056 5.16289L12.2499 6L12.4145 6.32918C12.6835 6.8671 12.2923 7.5 11.6909 7.5C11.5653 7.5 11.4414 7.47076 11.3291 7.41459L10.7252 7.11262C10.2921 6.89607 9.76896 6.98095 9.42656 7.32336L9.29541 7.4545C8.85607 7.89384 8.85607 8.60615 9.29541 9.04549L9.59054 9.34062C9.84745 9.59753 10.2126 9.71455 10.571 9.65482L11.7411 9.45981C12.0641 9.40596 12.3946 9.49558 12.6462 9.70525L13.9755 10.813C14.2962 11.0802 14.4356 11.5073 14.3344 11.9122C13.9519 13.4419 13.1609 14.839 12.046 15.9539L11.3233 16.6766C10.9809 17.019 10.4578 17.1039 10.0247 16.8874L9.8718 16.8109C9.49067 16.6204 9.24992 16.2308 9.24992 15.8047V14.716C9.24992 14.4176 9.13139 14.1315 8.92041 13.9205L7.57328 12.5734C7.23087 12.231 7.14599 11.7079 7.36254 11.2747L7.74992 10.5L6.10954 8.85962C5.22527 7.97535 4.6394 6.83689 4.43381 5.60337L4.26197 4.5723Z" fill="#0F172A"/>
</svg>
