<svg width="24" height="23" viewBox="0 0 24 23" fill="none" xmlns="http://www.w3.org/2000/svg">
<path d="M10.5966 20.5563L10.5959 20.5556C7.49604 17.7447 4.96328 15.4443 3.19963 13.2866C1.44148 11.1356 0.5 9.18761 0.5 7.08999C0.5 3.65873 3.17955 0.98999 6.6 0.98999C8.53685 0.98999 10.4041 1.89422 11.6206 3.31163L12 3.75371L12.3794 3.31163C13.5959 1.89422 15.4632 0.98999 17.4 0.98999C20.8205 0.98999 23.5 3.65873 23.5 7.08999C23.5 9.18761 22.5585 11.1356 20.8004 13.2866C19.0367 15.4443 16.504 17.7447 13.4041 20.5556L13.4034 20.5563L12 21.8338L10.5966 20.5563Z" stroke="black"/>
</svg>
