<svg width="17" height="17" viewBox="0 0 17 17" fill="none" xmlns="http://www.w3.org/2000/svg">
<path d="M7.08964 9.41037L11.1281 5.37191M15.2593 2.90731L11.8504 13.9861C11.5449 14.979 11.392 15.4757 11.1285 15.6403C10.9 15.7831 10.617 15.807 10.3681 15.7037C10.0811 15.5846 9.84816 15.1195 9.38345 14.1901L7.22432 9.87183C7.15058 9.72434 7.11367 9.6509 7.06441 9.587C7.0207 9.53029 6.97025 9.4792 6.91355 9.43549C6.85109 9.38735 6.77889 9.35125 6.63798 9.2808L2.30977 7.1167C1.38035 6.65199 0.9156 6.41942 0.796509 6.13241C0.693227 5.8835 0.716781 5.60027 0.859578 5.37173C1.02423 5.1082 1.52086 4.9551 2.51404 4.64951L13.5929 1.24064C14.3737 1.0004 14.7642 0.880369 15.028 0.97719C15.2577 1.06152 15.4388 1.24245 15.5231 1.47217C15.6199 1.73577 15.4998 2.12614 15.2598 2.90616L15.2593 2.90731Z" stroke="white" stroke-linecap="round" stroke-linejoin="round"/>
</svg>
