<svg width="16" height="15" viewBox="0 0 16 15" fill="none" xmlns="http://www.w3.org/2000/svg">
<path d="M11.7694 10.3856L14.4462 13.0619L13.5619 13.9462L10.8856 11.2694C9.88984 12.0676 8.65125 12.5018 7.375 12.5C4.27 12.5 1.75 9.98 1.75 6.875C1.75 3.77 4.27 1.25 7.375 1.25C10.48 1.25 13 3.77 13 6.875C13.0018 8.15125 12.5676 9.38984 11.7694 10.3856ZM10.5156 9.92188C11.3088 9.10618 11.7518 8.01277 11.75 6.875C11.75 4.45812 9.79187 2.5 7.375 2.5C4.95812 2.5 3 4.45812 3 6.875C3 9.29187 4.95812 11.25 7.375 11.25C8.51277 11.2518 9.60618 10.8088 10.4219 10.0156L10.5156 9.92188Z" fill="#9F9FA1"/>
</svg>
