<svg width="10" height="10" viewBox="0 0 10 10" fill="none" xmlns="http://www.w3.org/2000/svg">
<g clip-path="url(#clip0_197_3991)">
<path d="M9.16017 4.46789L7.39845 6.00539L7.92618 8.29445C7.95411 8.41412 7.94614 8.53936 7.90327 8.65452C7.8604 8.76968 7.78454 8.86965 7.68517 8.94193C7.58579 9.01421 7.46732 9.0556 7.34455 9.06091C7.22178 9.06622 7.10018 9.03522 6.99493 8.9718L4.99845 7.76086L3.00626 8.9718C2.90101 9.03522 2.7794 9.06622 2.65664 9.06091C2.53387 9.0556 2.4154 9.01421 2.31602 8.94193C2.21665 8.86965 2.14078 8.76968 2.09792 8.65452C2.05505 8.53936 2.04708 8.41412 2.07501 8.29445L2.60196 6.00773L0.839852 4.46789C0.746653 4.38751 0.67926 4.2814 0.646124 4.16287C0.612989 4.04434 0.615587 3.91866 0.653591 3.80161C0.691596 3.68455 0.763316 3.58131 0.859758 3.50485C0.9562 3.42839 1.07307 3.3821 1.19571 3.3718L3.51837 3.17062L4.42501 1.00813C4.47236 0.894655 4.55222 0.79773 4.65453 0.729554C4.75685 0.661378 4.87706 0.625 5.00001 0.625C5.12296 0.625 5.24316 0.661378 5.34548 0.729554C5.4478 0.79773 5.52766 0.894655 5.57501 1.00813L6.48438 3.17062L8.80626 3.3718C8.9289 3.3821 9.04577 3.42839 9.14221 3.50485C9.23865 3.58131 9.31037 3.68455 9.34838 3.80161C9.38638 3.91866 9.38898 4.04434 9.35585 4.16287C9.32271 4.2814 9.25532 4.38751 9.16212 4.46789H9.16017Z" fill="#FBAD46"/>
</g>
<defs>
<clipPath id="clip0_197_3991">
<rect width="10" height="10" fill="white"/>
</clipPath>
</defs>
</svg>
