<svg width="20" height="20" viewBox="0 0 20 20" fill="none" xmlns="http://www.w3.org/2000/svg">
<path d="M2.5 12.5L5.5624 8.21264C6.04746 7.53356 6.28998 7.19402 6.58906 7.23487C6.88814 7.27572 7.03074 7.66786 7.31593 8.45213L9.63366 14.8259C9.80529 15.2979 9.89111 15.5339 10.0911 15.6189C10.2912 15.7039 10.5206 15.6019 10.9796 15.398L16.62 12.8911C17.0362 12.7061 17.2442 12.6137 17.3201 12.4269C17.3961 12.2401 17.3115 12.0287 17.1424 11.6059L14.1667 4.16666M3.33333 13.3333L4.40754 13.8704C4.4778 13.9056 4.51293 13.9231 4.54308 13.9337C4.78313 14.0175 5.04789 13.9078 5.15833 13.6788C5.17221 13.65 5.18463 13.6128 5.20947 13.5383V13.5383C5.27354 13.3461 5.30557 13.25 5.3292 13.2081C5.52902 12.8538 6.0457 12.8736 6.21776 13.2422C6.23811 13.2858 6.26268 13.384 6.31182 13.5806L6.56824 14.6063C6.61012 14.7738 6.63106 14.8576 6.67627 14.9274C6.69466 14.9558 6.71589 14.9823 6.73962 15.0064C6.79797 15.0656 6.87519 15.1043 7.02965 15.1815L8.33333 15.8333M12.9167 4.58333L7.5 6.66666" stroke="white" stroke-linecap="round" stroke-linejoin="round"/>
</svg>
