<svg width="21" height="20" viewBox="0 0 21 20" fill="none" xmlns="http://www.w3.org/2000/svg">
<path d="M10.5 5.625C10.1548 5.625 9.875 5.34518 9.875 5C9.875 4.65482 10.1548 4.375 10.5 4.375C10.8452 4.375 11.125 4.65482 11.125 5C11.125 5.34518 10.8452 5.625 10.5 5.625Z" stroke="white" stroke-width="1.5" stroke-linecap="round" stroke-linejoin="round"/>
<path d="M10.5 10.625C10.1548 10.625 9.875 10.3452 9.875 10C9.875 9.65482 10.1548 9.375 10.5 9.375C10.8452 9.375 11.125 9.65482 11.125 10C11.125 10.3452 10.8452 10.625 10.5 10.625Z" stroke="white" stroke-width="1.5" stroke-linecap="round" stroke-linejoin="round"/>
<path d="M10.5 15.625C10.1548 15.625 9.875 15.3452 9.875 15C9.875 14.6548 10.1548 14.375 10.5 14.375C10.8452 14.375 11.125 14.6548 11.125 15C11.125 15.3452 10.8452 15.625 10.5 15.625Z" stroke="white" stroke-width="1.5" stroke-linecap="round" stroke-linejoin="round"/>
</svg>
