<svg width="21" height="20" viewBox="0 0 21 20" fill="none" xmlns="http://www.w3.org/2000/svg">
<path d="M19.4053 12.75C19.4053 13.4404 18.8456 14 18.1553 14C17.4649 14 16.9053 13.4404 16.9053 12.75L16.9053 5.25C16.9053 4.55964 17.4649 4 18.1553 4C18.8456 4 19.4053 4.55964 19.4053 5.25L19.4053 12.75Z" fill="white"/>
<path d="M9.40527 17L9.40527 18.2998C9.40527 18.5676 9.26554 18.8259 9.01033 18.9068C8.81945 18.9674 8.61618 19 8.40527 19C7.3007 19 6.40527 18.1046 6.40527 17C6.40527 16.005 6.58694 15.0524 6.9189 14.1735C7.12302 13.6332 6.75287 13 6.17524 13L3.65527 13C2.41263 13 1.39418 11.9904 1.50907 10.7531C1.70216 8.67339 2.16061 6.67064 2.85024 4.77906C3.25183 3.67752 4.33297 3 5.50543 3L8.69707 3C9.16281 3 9.62214 3.10843 10.0387 3.31672L12.7718 4.68328C13.1884 4.89156 13.6477 5 14.1135 5L15.4053 5L15.4053 12L14.4421 12C13.7576 12 13.1842 12.4825 12.8299 13.0681C12.3414 13.8752 11.5756 14.4958 10.6647 14.7977C10.2319 14.9412 9.81105 15.184 9.65279 15.6116C9.49272 16.0441 9.40527 16.5119 9.40527 17Z" fill="white"/>
</svg>
