<svg width="21" height="20" viewBox="0 0 21 20" fill="none" xmlns="http://www.w3.org/2000/svg">
<path d="M1.5 8.25C1.5 7.55964 2.05964 7 2.75 7C3.44036 7 4 7.55964 4 8.25V15.75C4 16.4404 3.44036 17 2.75 17C2.05964 17 1.5 16.4404 1.5 15.75V8.25Z" fill="white"/>
<path d="M11.5 3V1.70016C11.5 1.43243 11.6397 1.17406 11.8949 1.09316C12.0858 1.03264 12.2891 1 12.5 1C13.6046 1 14.5 1.89543 14.5 3C14.5 3.99504 14.3183 4.94764 13.9864 5.82646C13.7823 6.36683 14.1524 7 14.73 7H17.25C18.4926 7 19.5111 8.00957 19.3962 9.24689C19.2031 11.3266 18.7447 13.3294 18.055 15.2209C17.6534 16.3225 16.5723 17 15.3998 17H12.2082C11.7425 17 11.2831 16.8916 10.8666 16.6833L8.13344 15.3167C7.71687 15.1084 7.25753 15 6.7918 15H5.5V8H6.4632C7.14763 8 7.72105 7.51748 8.07541 6.93193C8.56387 6.1248 9.32962 5.50423 10.2406 5.20229C10.6734 5.05884 11.0942 4.81595 11.2525 4.38836C11.4126 3.95587 11.5 3.48815 11.5 3Z" fill="white"/>
</svg>
