<svg width="20" height="21" viewBox="0 0 20 21" fill="none" xmlns="http://www.w3.org/2000/svg">
<path d="M9.99996 14.0417C7.81663 14.0417 6.04163 12.2667 6.04163 10.0833V5.49999C6.04163 3.31666 7.81663 1.54166 9.99996 1.54166C12.1833 1.54166 13.9583 3.31666 13.9583 5.49999V10.0833C13.9583 12.2667 12.1833 14.0417 9.99996 14.0417ZM9.99996 2.79166C8.50829 2.79166 7.29163 4.00832 7.29163 5.49999V10.0833C7.29163 11.575 8.50829 12.7917 9.99996 12.7917C11.4916 12.7917 12.7083 11.575 12.7083 10.0833V5.49999C12.7083 4.00832 11.4916 2.79166 9.99996 2.79166Z" fill="#272C3F"/>
<path d="M10 16.9583C6.14167 16.9583 3 13.8167 3 9.95832V8.54166C3 8.19999 3.28333 7.91666 3.625 7.91666C3.96667 7.91666 4.25 8.19999 4.25 8.54166V9.95832C4.25 13.125 6.83333 15.7083 10 15.7083C13.1667 15.7083 15.75 13.125 15.75 9.95832V8.54166C15.75 8.19999 16.0333 7.91666 16.375 7.91666C16.7167 7.91666 17 8.19999 17 8.54166V9.95832C17 13.8167 13.8583 16.9583 10 16.9583Z" fill="#272C3F"/>
<path d="M11.1584 6.48334C11.0917 6.48334 11.0167 6.47501 10.9417 6.45001C10.3334 6.22501 9.66673 6.22501 9.05839 6.45001C8.73339 6.56667 8.37506 6.40001 8.25839 6.07501C8.14173 5.75001 8.30839 5.39167 8.63339 5.27501C9.51673 4.95834 10.4917 4.95834 11.3751 5.27501C11.7001 5.39167 11.8667 5.75001 11.7501 6.07501C11.6501 6.32501 11.4084 6.48334 11.1584 6.48334Z" fill="#272C3F"/>
<path d="M10.6667 8.25001C10.6084 8.25001 10.5584 8.24167 10.5 8.22501C10.1667 8.13334 9.82502 8.13334 9.49169 8.22501C9.15836 8.31667 8.81669 8.11667 8.72502 7.78334C8.63336 7.45834 8.83336 7.11667 9.16669 7.02501C9.70836 6.87501 10.2917 6.87501 10.8334 7.02501C11.1667 7.11667 11.3667 7.45834 11.275 7.79167C11.2 8.06667 10.9417 8.25001 10.6667 8.25001Z" fill="#272C3F"/>
<path d="M10 19.4583C9.65833 19.4583 9.375 19.175 9.375 18.8333V16.3333C9.375 15.9917 9.65833 15.7083 10 15.7083C10.3417 15.7083 10.625 15.9917 10.625 16.3333V18.8333C10.625 19.175 10.3417 19.4583 10 19.4583Z" fill="#272C3F"/>
</svg>
